<svg xmlns="http://www.w3.org/2000/svg" width="256" height="256" fill="none"><path stroke="url(#a)" stroke-linecap="round" stroke-width="25" d="M162.779 118.828v105.346"/><path fill="url(#b)" fill-rule="evenodd" d="M175.279 38.443v97.01l39.384-16.222c6.384-2.629 13.69.414 16.319 6.797 2.629 6.383-.414 13.689-6.797 16.319l-29.869 12.303 39.758 21.079c6.099 3.234 8.422 10.8 5.188 16.899-3.234 6.099-10.8 8.422-16.899 5.188l-58.083-30.794-24.537 10.107c-.308.127-.617.24-.928.341L32.554 221.278l-17.265 7.118V86.468l-.007-.017 142.683-59.543 17.314-7.226v18.761Zm-39.745 113.338-95.245 39.267v-87.943l109.99-45.9v74.098l-35.34-18.737c-6.1-3.234-13.666-.911-16.9 5.188-3.233 6.1-.91 13.666 5.189 16.899l32.306 17.128Z" clip-rule="evenodd"/><defs><linearGradient id="a" x1="163.279" x2="163.279" y1="118.828" y2="224.174" gradientUnits="userSpaceOnUse"><stop stop-color="#2E58FF"/><stop offset="1" stop-color="#26D0FF"/></linearGradient><linearGradient id="b" x1="128.003" x2="105.241" y1="19.688" y2="214.91" gradientUnits="userSpaceOnUse"><stop stop-color="#02F"/><stop offset=".48" stop-color="#5EE7FF"/><stop offset=".975" stop-color="#FCD8FF"/></linearGradient></defs></svg>