<!-- Generated by IcoMoon.io -->
<svg version="1.1" xmlns="http://www.w3.org/2000/svg" width="32" height="32" viewBox="0 0 32 32">
<path fill="#0071cd" d="M0.038 23.657c0.003 1.309 1.066 2.367 2.375 2.364 0 0 24.875-0.056 24.875-0.056 1.42-0.003 2.575 1.132 2.606 2.545 0-0.018 0.003-0.035 0.003-0.053 0 0-0.048-21.313-0.048-21.313-0.003-1.438-1.171-2.601-2.609-2.597 0 0-24.875 0.056-24.875 0.056-1.309 0.003-2.367 1.066-2.364 2.375 0 0 0.038 16.68 0.038 16.68z"></path>
<path fill="#1e9b5f" d="M29.298 16.714c0 0-21.592 9.368-21.592 9.368-0.456 0.198-0.987-0.063-1.187-0.582 0 0-5.232-13.621-5.232-13.621-0.2-0.519 0.008-1.101 0.464-1.299 0 0 21.592-9.368 21.592-9.368 0.456-0.198 0.987 0.063 1.187 0.582 0 0 5.232 13.621 5.232 13.621 0.2 0.519-0.008 1.101-0.464 1.299z"></path>
<path fill="#22b573" d="M29.768 20.094c0 0-24.591 5.455-24.591 5.455-0.519 0.115-1.028-0.237-1.138-0.787 0 0-2.859-14.411-2.859-14.411-0.109-0.55 0.223-1.089 0.743-1.204 0 0 24.591-5.455 24.591-5.455 0.519-0.115 1.028 0.237 1.138 0.787 0 0 2.859 14.411 2.859 14.411 0.109 0.55-0.223 1.089-0.743 1.204z"></path>
<path fill="#008cff" d="M31.432 11.74c-0.003-1.309-1.066-2.367-2.375-2.364 0 0-26.448 0.060-26.448 0.060-1.42 0.003-2.575-1.132-2.606-2.545-0 0.018-0.003 0.035-0.003 0.053 0 0 0.048 21.313 0.048 21.313 0.003 1.438 1.171 2.601 2.609 2.597 0 0 26.448-0.060 26.448-0.060 1.309-0.003 2.367-1.066 2.364-2.375 0 0-0.038-16.68-0.038-16.68z"></path>
<path fill="#0070cd" d="M26.236 22.693c0 0 5.237-0.012 5.237-0.012 0.292-0.001 0.528-0.238 0.527-0.53 0 0-0.009-3.803-0.009-3.803-0.001-0.292-0.238-0.528-0.53-0.528 0 0-5.237 0.012-5.237 0.012-1.342 0.003-2.428 1.094-2.425 2.436 0 0 0 0 0 0 0.003 1.342 1.093 2.428 2.436 2.425z"></path>
<path fill="#ddd" d="M27.349 20.26c0.001 0.618-0.498 1.12-1.116 1.121s-1.12-0.498-1.121-1.116c-0.001-0.618 0.498-1.12 1.116-1.121s1.12 0.498 1.121 1.116z"></path>
<path fill="#fff" d="M26.315 19.817c0 0.208-0.168 0.377-0.376 0.377s-0.377-0.168-0.377-0.376c-0-0.208 0.168-0.377 0.376-0.377s0.377 0.168 0.377 0.376z"></path>
<path fill="#fff" d="M11.717 22.215l-0.152-0.173c-0.747-0.851-2.045-2.149-2.893-2.894l-0.173-0.152c-0.431-0.379-1.007-0.588-1.62-0.588s-1.189 0.209-1.621 0.588l-0.173 0.152c-0.849 0.745-2.147 2.043-2.893 2.894l-0.152 0.173c-0.783 0.893-0.783 2.345 0 3.238l0.152 0.173c0.746 0.85 2.044 2.149 2.893 2.895l0.173 0.152c0.432 0.379 1.007 0.588 1.621 0.588s1.189-0.209 1.621-0.588l0.273-0.24c0.269-0.235 0.391-0.343 0.768-0.712l0.089-0.089-0.014-0.015c0.075-0.151 0.027-0.334-0.113-0.431s-0.331-0.079-0.449 0.043c-0.036 0.034-0.534 0.502-0.842 0.773l-0.173 0.152c-0.305 0.267-0.717 0.414-1.16 0.414s-0.855-0.147-1.16-0.415l-0.173-0.152c-0.831-0.729-2.101-1.999-2.83-2.83l-0.152-0.173c-0.266-0.304-0.413-0.717-0.413-1.163s0.147-0.859 0.413-1.163l0.152-0.173c0.729-0.831 1.998-2.101 2.83-2.831l0.173-0.152c0.305-0.267 0.717-0.415 1.16-0.415s0.855 0.147 1.16 0.415l0.173 0.152c0.831 0.73 2.101 2 2.83 2.83l0.152 0.173c0.554 0.631 0.555 1.738 0.003 2.322l-0.088 0.093c-0.249 0.265-0.4 0.425-0.559 0.473-0.151 0.045-0.342-0.003-0.705-0.176-0.607-0.289-1.466-0.774-1.764-0.943 0.121-0.237 0.398-0.817 0.528-1.398l0.035-0.156h-1.49v-0.182h1.896v-0.694h-1.896v-0.875h-0.697v0.875h-1.896v0.694h1.896v0.182h-1.459v0.693h2.627c-0.057 0.176-0.161 0.394-0.235 0.536-0.271-0.106-0.989-0.355-1.727-0.355-0.465 0-0.857 0.124-1.133 0.359-0.274 0.233-0.419 0.556-0.419 0.936s0.139 0.705 0.401 0.94c0.268 0.24 0.649 0.368 1.103 0.368 0.524 0 1.067-0.23 1.57-0.662 0.196-0.169 0.375-0.357 0.534-0.56 0.281 0.154 1.103 0.604 1.869 1.009 0.5 0.264 0.851 0.317 1.174 0.175 0.307-0.135 0.577-0.442 0.949-0.867l0.006-0.006c0.783-0.893 0.783-2.345-0.001-3.238zM5.602 25.648c-0.737 0-0.794-0.452-0.794-0.59 0.002-0.14 0.055-0.274 0.149-0.379 0.136-0.147 0.348-0.222 0.633-0.222 0.612 0 1.164 0.208 1.414 0.319-0.227 0.265-0.811 0.873-1.401 0.873z"></path>
</svg>
