<!-- Generated by IcoMoon.io -->
<svg version="1.1" xmlns="http://www.w3.org/2000/svg" width="32" height="32" viewBox="0 0 32 32">
<path fill="#1a1a1a" d="M0.038 23.657c0.003 1.309 1.066 2.367 2.375 2.364 0 0 24.875-0.056 24.875-0.056 1.42-0.003 2.575 1.132 2.606 2.545 0-0.018 0.003-0.035 0.003-0.053 0 0-0.048-21.313-0.048-21.313-0.003-1.438-1.171-2.601-2.609-2.597 0 0-24.875 0.056-24.875 0.056-1.309 0.003-2.367 1.066-2.364 2.375 0 0 0.038 16.68 0.038 16.68z"></path>
<path fill="#1e9b5f" d="M29.298 16.714c0 0-21.592 9.368-21.592 9.368-0.456 0.198-0.987-0.063-1.187-0.582 0 0-5.232-13.621-5.232-13.621-0.2-0.519 0.008-1.101 0.464-1.299 0 0 21.592-9.368 21.592-9.368 0.456-0.198 0.987 0.063 1.187 0.582 0 0 5.232 13.621 5.232 13.621 0.2 0.519-0.008 1.101-0.464 1.299z"></path>
<path fill="#22b573" d="M29.768 20.094c0 0-24.591 5.455-24.591 5.455-0.519 0.115-1.028-0.237-1.138-0.787 0 0-2.859-14.411-2.859-14.411-0.109-0.55 0.223-1.089 0.743-1.204 0 0 24.591-5.455 24.591-5.455 0.519-0.115 1.028 0.237 1.138 0.787 0 0 2.859 14.411 2.859 14.411 0.109 0.55-0.223 1.089-0.743 1.204z"></path>
<path fill="#434343" d="M31.432 11.74c-0.003-1.309-1.066-2.367-2.375-2.364 0 0-26.448 0.060-26.448 0.060-1.42 0.003-2.575-1.132-2.606-2.545-0 0.018-0.003 0.035-0.003 0.053 0 0 0.048 21.313 0.048 21.313 0.003 1.438 1.171 2.601 2.609 2.597 0 0 26.448-0.060 26.448-0.060 1.309-0.003 2.367-1.066 2.364-2.375 0 0-0.038-16.68-0.038-16.68z"></path>
<path fill="#1a1a1a" d="M26.236 22.693c0 0 5.237-0.012 5.237-0.012 0.292-0.001 0.528-0.238 0.527-0.53 0 0-0.009-3.803-0.009-3.803-0.001-0.292-0.238-0.528-0.53-0.528 0 0-5.237 0.012-5.237 0.012-1.342 0.003-2.428 1.094-2.425 2.436 0 0 0 0 0 0 0.003 1.342 1.093 2.428 2.436 2.425z"></path>
<path fill="#ddd" d="M27.349 20.26c0.001 0.618-0.498 1.12-1.116 1.121s-1.12-0.498-1.121-1.116c-0.001-0.618 0.498-1.12 1.116-1.121s1.12 0.498 1.121 1.116z"></path>
<path fill="#fff" d="M26.315 19.817c0 0.208-0.168 0.377-0.376 0.377s-0.377-0.168-0.377-0.376c-0-0.208 0.168-0.377 0.376-0.377s0.377 0.168 0.377 0.376z"></path>
<path fill="#fff" d="M5.778 26.32c-1.082 0-1.96-0.493-1.966-1.101 0 0.233-0.001 0.436-0.001 0.436 0 0.611 0.88 1.107 1.966 1.107s1.966-0.495 1.966-1.107v-0.442c0.001 0.611-0.879 1.107-1.965 1.107zM5.778 27.089c-1.082 0-1.96-0.492-1.966-1.101 0 0.233-0.001 0.436-0.001 0.436 0 0.611 0.88 1.107 1.966 1.107s1.966-0.495 1.966-1.107v-0.441c0.001 0.611-0.879 1.106-1.965 1.106zM8.294 25.807c-0.063 0-0.125-0.002-0.187-0.005-0.002 0.019-0.002 0.039-0.005 0.058 0.013 0.039 0.020 0.081 0.020 0.124v0.26c0.057 0.003 0.115 0.005 0.173 0.005 1.086 0 1.966-0.495 1.966-1.107v-0.441c0 0.611-0.88 1.107-1.967 1.107z"></path>
<path fill="#fff" d="M8.294 25.217c-0.063 0-0.125-0.002-0.187-0.005-0.002 0.019-0.002 0.038-0.005 0.056 0.013 0.038 0.020 0.078 0.020 0.12v0.251c0.057 0.003 0.115 0.005 0.173 0.005 1.086 0 1.965-0.479 1.965-1.071v-0.427c0 0.592-0.88 1.071-1.966 1.071zM8.294 23.726c-1.082 0-1.96-0.477-1.965-1.066 0 0.225-0.001 0.422-0.001 0.422 0 0.253 0.162 0.485 0.43 0.668 0.272 0.073 0.514 0.176 0.715 0.305 0.25 0.062 0.527 0.098 0.82 0.098 1.086 0 1.965-0.479 1.965-1.071v-0.427c0.002 0.593-0.879 1.071-1.965 1.071z"></path>
<path fill="#fff" d="M8.294 24.288c-0.132 0-0.261-0.008-0.386-0.021 0.1 0.136 0.167 0.284 0.195 0.443 0.063 0.004 0.126 0.005 0.19 0.005 1.087 0 1.966-0.48 1.966-1.072v-0.427c0.002 0.592-0.879 1.072-1.966 1.072zM8.294 21.082c-1.086 0-1.966 0.48-1.966 1.072s0.88 1.072 1.966 1.072c1.087 0 1.966-0.48 1.966-1.072s-0.88-1.072-1.966-1.072zM5.778 23.815c-1.086 0-1.966 0.48-1.966 1.072s0.88 1.072 1.966 1.072c1.087 0 1.966-0.48 1.966-1.072s-0.88-1.072-1.966-1.072z"></path>
<path fill="#fff" d="M7.037 18.722c-2.999 0-5.428 2.43-5.428 5.427s2.429 5.427 5.428 5.427c2.996 0 5.425-2.43 5.425-5.427s-2.429-5.427-5.425-5.427v0zM7.037 28.897c-2.624 0-4.749-2.126-4.749-4.748s2.125-4.748 4.749-4.748c2.621 0 4.747 2.126 4.747 4.748s-2.126 4.748-4.747 4.748v0z"></path>
</svg>
