<!-- Generated by IcoMoon.io -->
<svg version="1.1" xmlns="http://www.w3.org/2000/svg" width="32" height="32" viewBox="0 0 32 32">
<path fill="#549f24" d="M0.038 23.657c0.003 1.309 1.066 2.367 2.375 2.364 0 0 24.875-0.056 24.875-0.056 1.42-0.003 2.575 1.132 2.606 2.545 0-0.018 0.003-0.035 0.003-0.053 0 0-0.048-21.313-0.048-21.313-0.003-1.438-1.171-2.601-2.609-2.597 0 0-24.875 0.056-24.875 0.056-1.309 0.003-2.367 1.066-2.364 2.375 0 0 0.038 16.68 0.038 16.68z"></path>
<path fill="#1e9b5f" d="M29.298 16.714c0 0-21.592 9.368-21.592 9.368-0.456 0.198-0.987-0.063-1.187-0.582 0 0-5.232-13.621-5.232-13.621-0.2-0.519 0.008-1.101 0.464-1.299 0 0 21.592-9.368 21.592-9.368 0.456-0.198 0.987 0.063 1.187 0.582 0 0 5.232 13.621 5.232 13.621 0.2 0.519-0.008 1.101-0.464 1.299z"></path>
<path fill="#22b573" d="M29.768 20.094c0 0-24.591 5.455-24.591 5.455-0.519 0.115-1.028-0.237-1.138-0.787 0 0-2.859-14.411-2.859-14.411-0.109-0.55 0.223-1.089 0.743-1.204 0 0 24.591-5.455 24.591-5.455 0.519-0.115 1.028 0.237 1.138 0.787 0 0 2.859 14.411 2.859 14.411 0.109 0.55-0.223 1.089-0.743 1.204z"></path>
<path fill="#85c65c" d="M31.432 11.74c-0.003-1.309-1.066-2.367-2.375-2.364 0 0-26.448 0.060-26.448 0.060-1.42 0.003-2.575-1.132-2.606-2.545-0 0.018-0.003 0.035-0.003 0.053 0 0 0.048 21.313 0.048 21.313 0.003 1.438 1.171 2.601 2.609 2.597 0 0 26.448-0.060 26.448-0.060 1.309-0.003 2.367-1.066 2.364-2.375 0 0-0.038-16.68-0.038-16.68z"></path>
<path fill="#539e24" d="M26.236 22.693c0 0 5.237-0.012 5.237-0.012 0.292-0.001 0.528-0.238 0.527-0.53 0 0-0.009-3.803-0.009-3.803-0.001-0.292-0.238-0.528-0.53-0.528 0 0-5.237 0.012-5.237 0.012-1.342 0.003-2.428 1.094-2.425 2.436 0 0 0 0 0 0 0.003 1.342 1.093 2.428 2.436 2.425z"></path>
<path fill="#ddd" d="M27.349 20.26c0.001 0.618-0.498 1.12-1.116 1.121s-1.12-0.498-1.121-1.116c-0.001-0.618 0.498-1.12 1.116-1.121s1.12 0.498 1.121 1.116z"></path>
<path fill="#fff" d="M26.315 19.817c0 0.208-0.168 0.377-0.376 0.377s-0.377-0.168-0.377-0.376c-0-0.208 0.168-0.377 0.376-0.377s0.377 0.168 0.377 0.376z"></path>
<path fill="#fff" d="M6.88 18.722c-2.999 0-5.428 2.43-5.428 5.427s2.429 5.427 5.428 5.427c2.996 0 5.425-2.43 5.425-5.427s-2.429-5.427-5.425-5.427v0zM6.88 28.897c-2.624 0-4.749-2.126-4.749-4.748s2.125-4.748 4.749-4.748c2.621 0 4.747 2.126 4.747 4.748s-2.126 4.748-4.747 4.748v0z"></path>
<path fill="#fff" d="M7.316 22.976c0.623 0 1.283-0.002 1.92 0.002 0.656 0.003 0.741-0.063 0.868-0.785-1.813-0.003-3.079-0.005-3.914-0.010-1.251-0.008-1.499 0.233-1.789 1.506-0.022 0.096-0.030 0.142-0.046 0.24h-0.857l0.671 0.819c-0.020 0.131-0.048 0.274-0.076 0.404-0.138 0.64 0.028 1.278 0.792 1.278 1.299 0 2.646-0.005 3.916 0 0.291 0 0.376-0.137 0.423-0.312 0.026-0.094 0.105-0.473 0.105-0.473h-2.254c-0.196 0-0.377 0.001-0.546 0-0.248-0.001-0.449-0.103-0.539-0.231-0.195-0.27 0.046-0.661 0.441-0.661l2.589-0.002c0 0 0.314 0.010 0.413-0.055 0.083-0.056 0.143-0.139 0.166-0.234l0.125-0.531h-2.796c-0.633-0.040-0.629-0.455-0.629-0.455 0.014-0.379 0.328-0.503 0.519-0.498 0.163 0.004 0.203 0 0.499 0h-0z"></path>
</svg>
