<!-- Generated by IcoMoon.io -->
<svg version="1.1" xmlns="http://www.w3.org/2000/svg" width="32" height="32" viewBox="0 0 32 32">
<path fill="#0071cd" d="M0.038 23.769c0.003 1.328 1.082 2.401 2.409 2.399 0 0 25.24-0.057 25.24-0.057 1.441-0.003 2.612 1.148 2.644 2.582 0-0.018 0.003-0.035 0.003-0.053 0 0-0.049-21.626-0.049-21.626-0.003-1.459-1.188-2.639-2.647-2.635 0 0-25.24 0.057-25.24 0.057-1.328 0.003-2.401 1.082-2.399 2.409 0 0 0.038 16.924 0.038 16.924z"></path>
<path fill="#1e9b5f" d="M29.727 16.724c0 0-21.908 9.505-21.908 9.505-0.462 0.201-1.002-0.064-1.204-0.591 0 0-5.309-13.82-5.309-13.82-0.203-0.527 0.008-1.117 0.471-1.318 0 0 21.908-9.505 21.908-9.505 0.462-0.201 1.002 0.064 1.204 0.591 0 0 5.309 13.82 5.309 13.82 0.203 0.527-0.008 1.117-0.471 1.318z"></path>
<path fill="#22b573" d="M30.204 20.154c0 0-24.952 5.535-24.952 5.535-0.527 0.117-1.043-0.24-1.154-0.798 0 0-2.901-14.622-2.901-14.622-0.111-0.558 0.227-1.105 0.753-1.221 0 0 24.952-5.535 24.952-5.535 0.527-0.117 1.043 0.241 1.154 0.798 0 0 2.901 14.622 2.901 14.622 0.111 0.558-0.227 1.105-0.753 1.221z"></path>
<path fill="#008cff" d="M31.892 11.678c-0.003-1.328-1.082-2.402-2.409-2.399 0 0-26.836 0.060-26.836 0.060-1.441 0.003-2.612-1.148-2.644-2.582-0 0.018-0.003 0.035-0.003 0.053 0 0 0.049 21.626 0.049 21.626 0.003 1.459 1.188 2.639 2.647 2.635 0 0 26.836-0.060 26.836-0.060 1.328-0.003 2.401-1.082 2.399-2.409 0 0-0.038-16.924-0.038-16.924z"></path>
<path fill="#0070cd" d="M26.62 22.791c0 0 5.314-0.012 5.314-0.012 0.296-0.001 0.536-0.241 0.535-0.538 0 0-0.009-3.859-0.009-3.859-0.001-0.296-0.241-0.536-0.538-0.535 0 0-5.314 0.012-5.314 0.012-1.362 0.003-2.463 1.11-2.46 2.472 0 0 0 0 0 0 0.003 1.362 1.11 2.463 2.471 2.46z"></path>
<path fill="#ddd" d="M27.749 20.323c0.001 0.627-0.506 1.136-1.132 1.137s-1.136-0.506-1.137-1.132c-0.001-0.627 0.506-1.136 1.132-1.137s1.136 0.506 1.137 1.132z"></path>
<path fill="#fff" d="M26.7 19.872c0 0.211-0.17 0.382-0.381 0.383s-0.382-0.17-0.383-0.381c-0-0.211 0.17-0.382 0.381-0.383s0.382 0.17 0.383 0.381z"></path>
<path fill="#fff" d="M29.944 19.956c-0.243-0.091-0.375-0.161-0.375-0.272 0-0.094 0.076-0.148 0.212-0.148 0.249 0 0.505 0.097 0.681 0.184l0.099-0.621c-0.14-0.068-0.425-0.178-0.82-0.178-0.279 0-0.512 0.074-0.678 0.212-0.173 0.144-0.262 0.353-0.262 0.604 0 0.457 0.276 0.651 0.724 0.816 0.289 0.104 0.385 0.178 0.385 0.292 0 0.111-0.094 0.175-0.263 0.175-0.21 0-0.555-0.104-0.781-0.238l-0.101 0.628c0.195 0.111 0.553 0.225 0.926 0.225 0.295 0 0.541-0.071 0.707-0.205 0.186-0.148 0.282-0.366 0.282-0.648 0-0.467-0.282-0.661-0.737-0.826h0z"></path>
<path fill="#fff" d="M11.889 22.306l-0.154-0.176c-0.758-0.864-2.075-2.181-2.936-2.936l-0.176-0.154c-0.438-0.385-1.022-0.597-1.644-0.597s-1.207 0.212-1.645 0.597l-0.176 0.154c-0.861 0.756-2.178 2.073-2.936 2.937l-0.154 0.176c-0.794 0.906-0.794 2.38 0 3.286l0.154 0.176c0.757 0.863 2.074 2.18 2.936 2.937l0.176 0.154c0.438 0.385 1.022 0.597 1.645 0.597s1.206-0.212 1.645-0.597l0.277-0.243c0.273-0.239 0.397-0.348 0.779-0.723l0.090-0.090-0.014-0.015c0.076-0.154 0.028-0.339-0.114-0.438s-0.335-0.080-0.456 0.043c-0.036 0.034-0.542 0.509-0.854 0.784l-0.175 0.154c-0.309 0.271-0.728 0.421-1.177 0.421s-0.868-0.149-1.177-0.421l-0.176-0.154c-0.843-0.74-2.131-2.029-2.871-2.872l-0.154-0.176c-0.27-0.308-0.419-0.727-0.419-1.18s0.149-0.872 0.419-1.18l0.154-0.176c0.74-0.843 2.028-2.132 2.871-2.872l0.175-0.154c0.309-0.271 0.727-0.421 1.177-0.421s0.868 0.149 1.177 0.421l0.176 0.154c0.843 0.741 2.132 2.029 2.871 2.872l0.154 0.176c0.562 0.64 0.564 1.763 0.003 2.356l-0.089 0.094c-0.253 0.269-0.406 0.432-0.567 0.48-0.153 0.046-0.347-0.003-0.715-0.178-0.616-0.294-1.487-0.785-1.79-0.957 0.123-0.241 0.403-0.829 0.536-1.418l0.036-0.158h-1.511v-0.185h1.924v-0.704h-1.924v-0.888h-0.707v0.888h-1.924v0.704h1.924v0.185h-1.48v0.704h2.666c-0.058 0.178-0.164 0.4-0.239 0.544-0.275-0.107-1.004-0.36-1.753-0.36-0.472 0-0.869 0.126-1.15 0.364-0.278 0.236-0.425 0.564-0.425 0.95s0.141 0.715 0.407 0.954c0.272 0.244 0.659 0.373 1.119 0.373 0.531 0 1.082-0.233 1.593-0.672 0.199-0.172 0.381-0.362 0.542-0.569 0.285 0.156 1.119 0.613 1.897 1.024 0.507 0.268 0.864 0.321 1.192 0.177 0.312-0.137 0.585-0.448 0.963-0.879l0.006-0.007c0.794-0.906 0.794-2.38-0.001-3.286zM5.684 25.789c-0.748 0-0.806-0.459-0.806-0.599 0.002-0.142 0.056-0.279 0.151-0.385 0.137-0.15 0.354-0.226 0.642-0.226 0.621 0 1.181 0.211 1.434 0.323-0.23 0.269-0.823 0.886-1.422 0.886z"></path>
</svg>
