<!-- Generated by IcoMoon.io -->
<svg version="1.1" xmlns="http://www.w3.org/2000/svg" width="32" height="32" viewBox="0 0 32 32">
<path fill="#006924" d="M0.038 23.657c0.003 1.309 1.066 2.367 2.375 2.364 0 0 24.875-0.056 24.875-0.056 1.42-0.003 2.575 1.132 2.606 2.545 0-0.018 0.003-0.035 0.003-0.053 0 0-0.048-21.313-0.048-21.313-0.003-1.438-1.171-2.601-2.609-2.597 0 0-24.875 0.056-24.875 0.056-1.309 0.003-2.367 1.066-2.364 2.375 0 0 0.038 16.68 0.038 16.68z"></path>
<path fill="#1e9b5f" d="M29.298 16.714c0 0-21.592 9.368-21.592 9.368-0.456 0.198-0.987-0.063-1.187-0.582 0 0-5.232-13.621-5.232-13.621-0.2-0.519 0.008-1.101 0.464-1.299 0 0 21.592-9.368 21.592-9.368 0.456-0.198 0.987 0.063 1.187 0.582 0 0 5.232 13.621 5.232 13.621 0.2 0.519-0.008 1.101-0.464 1.299z"></path>
<path fill="#22b573" d="M29.768 20.094c0 0-24.591 5.455-24.591 5.455-0.519 0.115-1.028-0.237-1.138-0.787 0 0-2.859-14.411-2.859-14.411-0.109-0.55 0.223-1.089 0.743-1.204 0 0 24.591-5.455 24.591-5.455 0.519-0.115 1.028 0.237 1.138 0.787 0 0 2.859 14.411 2.859 14.411 0.109 0.55-0.223 1.089-0.743 1.204z"></path>
<path fill="#01cd47" d="M31.432 11.74c-0.003-1.309-1.066-2.367-2.375-2.364 0 0-26.448 0.060-26.448 0.060-1.42 0.003-2.575-1.132-2.606-2.545-0 0.018-0.003 0.035-0.003 0.053 0 0 0.048 21.313 0.048 21.313 0.003 1.438 1.171 2.601 2.609 2.597 0 0 26.448-0.060 26.448-0.060 1.309-0.003 2.367-1.066 2.364-2.375 0 0-0.038-16.68-0.038-16.68z"></path>
<path fill="#006924" d="M26.236 22.693c0 0 5.237-0.012 5.237-0.012 0.292-0.001 0.528-0.238 0.527-0.53 0 0-0.009-3.803-0.009-3.803-0.001-0.292-0.238-0.528-0.53-0.528 0 0-5.237 0.012-5.237 0.012-1.342 0.003-2.428 1.094-2.425 2.436 0 0 0 0 0 0 0.003 1.342 1.093 2.428 2.436 2.425z"></path>
<path fill="#ddd" d="M27.349 20.26c0.001 0.618-0.498 1.12-1.116 1.121s-1.12-0.498-1.121-1.116c-0.001-0.618 0.498-1.12 1.116-1.121s1.12 0.498 1.121 1.116z"></path>
<path fill="#fff" d="M26.315 19.817c0 0.208-0.168 0.377-0.376 0.377s-0.377-0.168-0.377-0.376c-0-0.208 0.168-0.377 0.376-0.377s0.377 0.168 0.377 0.376z"></path>
<path fill="#fff" d="M10.874 24.652c0-0.935-0.977-1.694-2.184-1.694-1.206 0-2.184 0.758-2.184 1.694 0 0.93 0.967 1.684 2.164 1.693 0.521 0.871 0.998 0.704 0.998 0.704s-0.372-0.246-0.411-0.762c0.931-0.194 1.617-0.852 1.617-1.635v0zM7.964 24.388c-0.141 0-0.255-0.114-0.255-0.254s0.115-0.254 0.255-0.254c0.141 0 0.255 0.114 0.255 0.254s-0.115 0.254-0.255 0.254v0zM9.363 24.388c-0.142 0-0.255-0.114-0.255-0.254s0.113-0.254 0.255-0.254c0.141 0 0.254 0.114 0.254 0.254s-0.113 0.254-0.254 0.254v0z"></path>
<path fill="#fff" d="M8.36 22.6c-0.363-0.793-1.347-1.363-2.505-1.363-1.467 0-2.657 0.914-2.657 2.041 0 0.966 0.874 1.775 2.046 1.986-0.022 0.668-0.504 0.987-0.504 0.987s0.607 0.214 1.258-0.932c0 0-0.003-0.001-0.009-0.002 0.123-0.006 0.244-0.017 0.362-0.034-0.157-0.248-0.246-0.527-0.246-0.822-0-0.991 0.996-1.801 2.254-1.861v0zM5.062 22.937c-0.186 0-0.335-0.149-0.335-0.332 0-0.185 0.15-0.333 0.335-0.333 0.184 0 0.334 0.149 0.334 0.333 0 0.183-0.149 0.332-0.334 0.332v0zM6.413 22.605c0-0.185 0.15-0.333 0.335-0.333 0.184 0 0.334 0.149 0.334 0.333 0 0.184-0.15 0.332-0.334 0.332-0.186 0-0.335-0.149-0.335-0.332v0z"></path>
<path fill="#fff" d="M7.037 18.722c-2.999 0-5.428 2.43-5.428 5.427s2.429 5.427 5.428 5.427c2.996 0 5.425-2.43 5.425-5.427s-2.429-5.427-5.425-5.427v0zM7.037 28.897c-2.624 0-4.749-2.126-4.749-4.748s2.125-4.748 4.749-4.748c2.621 0 4.747 2.126 4.747 4.748s-2.126 4.748-4.747 4.748v0z"></path>
</svg>
